<svg width="240" height="64" viewBox="0 0 240 64" fill="none" xmlns="http://www.w3.org/2000/svg">
  <defs>
    <linearGradient id="ring" x1="10%" y1="0%" x2="85%" y2="95%">
      <stop offset="0%" stop-color="#f5a353" />
      <stop offset="100%" stop-color="#e0853b" />
    </linearGradient>
  </defs>
  <g>
    <path
      d="M40 9C24.536 9 12 21.536 12 37C12 52.464 24.536 65 40 65C49.56 65 58.008 60.864 63.992 54.056L53.808 45.752C50.136 49.992 45.152 52.52 39.752 52.52C30.184 52.52 22.232 44.568 22.232 35C22.232 25.432 30.184 17.48 39.752 17.48C45.2 17.48 50.216 20.04 53.888 24.28L64.072 15.976C58.112 9.128 49.616 5 40 5Z"
      fill="url(#ring)"
    />
    <path
      d="M95.6203 47.816C86.3643 47.816 79.3163 40.16 79.3163 31.256C79.3163 22.352 86.3643 14.696 95.6203 14.696C101.7 14.696 105.948 17.24 108.996 21.272L101.22 27.368C100.284 25.896 98.0203 24.2 95.6203 24.2C91.0203 24.2 87.6203 27.992 87.6203 31.256C87.6203 34.52 91.0203 38.312 95.6203 38.312C98.0203 38.312 100.284 36.616 101.22 35.144L109.036 41.24C105.988 45.272 101.7 47.816 95.6203 47.816Z"
      fill="#1f2933"
    />
    <path
      d="M114.233 15.592H122.537V47H114.233V15.592Z"
      fill="#1f2933"
    />
    <path
      d="M128.369 24.2H135.801V47H128.369V24.2ZM127.577 17.432C127.577 14.936 129.513 13 132.009 13C134.505 13 136.441 14.936 136.441 17.432C136.441 19.928 134.505 21.864 132.009 21.864C129.513 21.864 127.577 19.928 127.577 17.432Z"
      fill="#1f2933"
    />
    <path
      d="M141.033 24.2H148.177L155.449 36.696H155.721V24.2H163.153V47H156.009L148.737 34.504H148.465V47H141.033V24.2Z"
      fill="#1f2933"
    />
    <path
      d="M167.289 35.944C167.289 28.088 172.601 24.008 179.689 24.008C187.305 24.008 192.377 28.312 192.377 36.136V38.184H174.393C174.745 40.728 177.145 42.312 180.113 42.312C182.017 42.312 184.121 41.576 185.369 40.328L190.561 44.912C188.153 47.608 184.505 48.968 180.241 48.968C170.825 48.968 167.289 42.888 167.289 35.944ZM184.393 33.64C184.393 31.624 182.921 30.168 180.113 30.168C177.649 30.168 175.905 31.624 174.889 33.64H184.393Z"
      fill="#1f2933"
    />
    <path
      d="M197.785 24.2H204.709L206.489 28.928H206.761L209.841 24.2H218.669L210.365 34.376L219.329 47H210.161L206.957 41.56H206.685L203.273 47H194.261L203.709 34.376L197.785 24.2Z"
      fill="#1f2933"
    />
  </g>
</svg>
